<mxfile host="app.diagrams.net" agent="Mozilla/5.0 (Windows NT 10.0; Win64; x64) AppleWebKit/537.36 (KHTML, like Gecko) Chrome/126.0.0.0 Safari/537.36" version="24.7.5">
  <diagram name="第 1 页" id="NMHc7NdeImHY1prMpwUW">
    <mxGraphModel dx="1147" dy="708" grid="1" gridSize="10" guides="1" tooltips="1" connect="1" arrows="1" fold="1" page="1" pageScale="1" pageWidth="827" pageHeight="1169" math="0" shadow="0">
      <root>
        <mxCell id="0" />
        <mxCell id="1" parent="0" />
        <mxCell id="VjbKFeKNcHJvRqxNimhH-12" value="" style="group" vertex="1" connectable="0" parent="1">
          <mxGeometry x="20" y="70" width="210" height="550" as="geometry" />
        </mxCell>
        <mxCell id="VjbKFeKNcHJvRqxNimhH-1" value="Saas平台" style="rounded=0;whiteSpace=wrap;html=1;fillColor=#e1d5e7;strokeColor=#9673a6;" vertex="1" parent="VjbKFeKNcHJvRqxNimhH-12">
          <mxGeometry width="80" height="40" as="geometry" />
        </mxCell>
        <mxCell id="VjbKFeKNcHJvRqxNimhH-27" value="" style="endArrow=classic;html=1;rounded=0;" edge="1" parent="VjbKFeKNcHJvRqxNimhH-12">
          <mxGeometry width="50" height="50" relative="1" as="geometry">
            <mxPoint x="40" y="70" as="sourcePoint" />
            <mxPoint x="240" y="70" as="targetPoint" />
            <Array as="points" />
          </mxGeometry>
        </mxCell>
        <mxCell id="VjbKFeKNcHJvRqxNimhH-31" value="&lt;font style=&quot;font-size: 12px;&quot;&gt;1：下发实时图片/视频分析&lt;/font&gt;" style="edgeLabel;html=1;align=center;verticalAlign=middle;resizable=0;points=[];" vertex="1" connectable="0" parent="VjbKFeKNcHJvRqxNimhH-27">
          <mxGeometry x="-0.12" y="-4" relative="1" as="geometry">
            <mxPoint y="-14" as="offset" />
          </mxGeometry>
        </mxCell>
        <mxCell id="VjbKFeKNcHJvRqxNimhH-16" value="" style="group" vertex="1" connectable="0" parent="1">
          <mxGeometry x="414" y="70" width="81" height="550" as="geometry" />
        </mxCell>
        <mxCell id="VjbKFeKNcHJvRqxNimhH-7" value="CV-RM" style="rounded=0;whiteSpace=wrap;html=1;fillColor=#ffe6cc;strokeColor=#d79b00;" vertex="1" parent="VjbKFeKNcHJvRqxNimhH-16">
          <mxGeometry width="81" height="40" as="geometry" />
        </mxCell>
        <mxCell id="VjbKFeKNcHJvRqxNimhH-19" value="" style="group" vertex="1" connectable="0" parent="1">
          <mxGeometry x="590" y="70" width="70" height="550" as="geometry" />
        </mxCell>
        <mxCell id="VjbKFeKNcHJvRqxNimhH-8" value="EX" style="rounded=0;whiteSpace=wrap;html=1;fillColor=#dae8fc;strokeColor=#6c8ebf;" vertex="1" parent="VjbKFeKNcHJvRqxNimhH-19">
          <mxGeometry width="70" height="40" as="geometry" />
        </mxCell>
        <mxCell id="VjbKFeKNcHJvRqxNimhH-22" value="" style="group" vertex="1" connectable="0" parent="1">
          <mxGeometry x="710" y="70" width="70" height="550" as="geometry" />
        </mxCell>
        <mxCell id="VjbKFeKNcHJvRqxNimhH-9" value="MySQL" style="rounded=0;whiteSpace=wrap;html=1;fillColor=#d5e8d4;strokeColor=#82b366;" vertex="1" parent="VjbKFeKNcHJvRqxNimhH-22">
          <mxGeometry width="70" height="40" as="geometry" />
        </mxCell>
        <mxCell id="VjbKFeKNcHJvRqxNimhH-29" value="" style="group" vertex="1" connectable="0" parent="1">
          <mxGeometry x="930" y="70" width="70" height="550" as="geometry" />
        </mxCell>
        <mxCell id="VjbKFeKNcHJvRqxNimhH-11" value="MQ" style="rounded=0;whiteSpace=wrap;html=1;fillColor=#bac8d3;strokeColor=#23445d;" vertex="1" parent="VjbKFeKNcHJvRqxNimhH-29">
          <mxGeometry width="70" height="40" as="geometry" />
        </mxCell>
        <mxCell id="VjbKFeKNcHJvRqxNimhH-30" value="" style="group" vertex="1" connectable="0" parent="1">
          <mxGeometry x="820" y="70" width="80" height="550" as="geometry" />
        </mxCell>
        <mxCell id="VjbKFeKNcHJvRqxNimhH-10" value="视频算子" style="rounded=0;whiteSpace=wrap;html=1;fillColor=#b1ddf0;strokeColor=#10739e;" vertex="1" parent="VjbKFeKNcHJvRqxNimhH-30">
          <mxGeometry width="80" height="40" as="geometry" />
        </mxCell>
        <mxCell id="VjbKFeKNcHJvRqxNimhH-13" value="" style="group" vertex="1" connectable="0" parent="1">
          <mxGeometry x="210" y="70" width="100" height="550" as="geometry" />
        </mxCell>
        <mxCell id="VjbKFeKNcHJvRqxNimhH-4" value="CV-Perception" style="rounded=0;whiteSpace=wrap;html=1;fillColor=#fff2cc;strokeColor=#d6b656;" vertex="1" parent="VjbKFeKNcHJvRqxNimhH-13">
          <mxGeometry width="100" height="40" as="geometry" />
        </mxCell>
        <mxCell id="VjbKFeKNcHJvRqxNimhH-34" value="2.判断是否已存在任务" style="html=1;align=left;spacingLeft=2;endArrow=block;rounded=0;edgeStyle=orthogonalEdgeStyle;curved=0;rounded=0;" edge="1" parent="VjbKFeKNcHJvRqxNimhH-13">
          <mxGeometry x="-0.2308" relative="1" as="geometry">
            <mxPoint x="50" y="80" as="sourcePoint" />
            <Array as="points">
              <mxPoint x="80" y="80" />
              <mxPoint x="80" y="130" />
              <mxPoint x="50" y="130" />
            </Array>
            <mxPoint x="50" y="130" as="targetPoint" />
            <mxPoint as="offset" />
          </mxGeometry>
        </mxCell>
        <mxCell id="VjbKFeKNcHJvRqxNimhH-50" value="3.创建抓拍库" style="html=1;align=left;spacingLeft=2;endArrow=block;rounded=0;edgeStyle=orthogonalEdgeStyle;curved=0;rounded=0;" edge="1" parent="VjbKFeKNcHJvRqxNimhH-13">
          <mxGeometry relative="1" as="geometry">
            <mxPoint x="50" y="150" as="sourcePoint" />
            <Array as="points">
              <mxPoint x="80" y="180" />
            </Array>
            <mxPoint x="50" y="180" as="targetPoint" />
          </mxGeometry>
        </mxCell>
        <mxCell id="VjbKFeKNcHJvRqxNimhH-51" value="4，请求对应图片/视频算子" style="html=1;verticalAlign=bottom;startArrow=oval;startFill=1;endArrow=block;startSize=8;curved=0;rounded=0;" edge="1" parent="VjbKFeKNcHJvRqxNimhH-13">
          <mxGeometry width="60" relative="1" as="geometry">
            <mxPoint x="50" y="230" as="sourcePoint" />
            <mxPoint x="240" y="230" as="targetPoint" />
          </mxGeometry>
        </mxCell>
        <mxCell id="VjbKFeKNcHJvRqxNimhH-52" value="5.返回算子信息" style="html=1;verticalAlign=bottom;endArrow=open;dashed=1;endSize=8;curved=0;rounded=0;" edge="1" parent="VjbKFeKNcHJvRqxNimhH-13">
          <mxGeometry relative="1" as="geometry">
            <mxPoint x="240" y="270" as="sourcePoint" />
            <mxPoint x="50" y="270" as="targetPoint" />
          </mxGeometry>
        </mxCell>
        <mxCell id="VjbKFeKNcHJvRqxNimhH-53" value="6.写路由" style="html=1;verticalAlign=bottom;endArrow=block;curved=0;rounded=0;" edge="1" parent="VjbKFeKNcHJvRqxNimhH-13">
          <mxGeometry width="80" relative="1" as="geometry">
            <mxPoint x="50" y="310" as="sourcePoint" />
            <mxPoint x="420" y="310" as="targetPoint" />
          </mxGeometry>
        </mxCell>
        <mxCell id="VjbKFeKNcHJvRqxNimhH-55" value="8. 视频流任务需要下发给算子开启分析任务（grpc）" style="html=1;verticalAlign=bottom;endArrow=block;curved=0;rounded=0;" edge="1" parent="VjbKFeKNcHJvRqxNimhH-13">
          <mxGeometry width="80" relative="1" as="geometry">
            <mxPoint x="50" y="400" as="sourcePoint" />
            <mxPoint x="650" y="400" as="targetPoint" />
          </mxGeometry>
        </mxCell>
        <mxCell id="VjbKFeKNcHJvRqxNimhH-57" value="9. 更新任务状态到MySQL" style="html=1;verticalAlign=bottom;endArrow=block;curved=0;rounded=0;" edge="1" parent="VjbKFeKNcHJvRqxNimhH-13">
          <mxGeometry width="80" relative="1" as="geometry">
            <mxPoint x="50" y="440" as="sourcePoint" />
            <mxPoint x="530" y="440" as="targetPoint" />
          </mxGeometry>
        </mxCell>
        <mxCell id="VjbKFeKNcHJvRqxNimhH-58" value="10.发布状态更新事件" style="html=1;verticalAlign=bottom;endArrow=block;curved=0;rounded=0;" edge="1" parent="VjbKFeKNcHJvRqxNimhH-13">
          <mxGeometry width="80" relative="1" as="geometry">
            <mxPoint x="50" y="470" as="sourcePoint" />
            <mxPoint x="750" y="470" as="targetPoint" />
          </mxGeometry>
        </mxCell>
        <mxCell id="VjbKFeKNcHJvRqxNimhH-54" value="7. 持久化到 Channel_Analysis 数据库" style="html=1;verticalAlign=bottom;endArrow=block;curved=0;rounded=0;" edge="1" parent="1">
          <mxGeometry width="80" relative="1" as="geometry">
            <mxPoint x="260" y="430" as="sourcePoint" />
            <mxPoint x="740" y="430" as="targetPoint" />
          </mxGeometry>
        </mxCell>
        <mxCell id="VjbKFeKNcHJvRqxNimhH-5" value="CV-Perception" style="rounded=0;whiteSpace=wrap;html=1;fillColor=#fff2cc;strokeColor=#d6b656;" vertex="1" parent="1">
          <mxGeometry x="210" y="630" width="100" height="40" as="geometry" />
        </mxCell>
        <mxCell id="VjbKFeKNcHJvRqxNimhH-6" style="edgeStyle=orthogonalEdgeStyle;rounded=0;orthogonalLoop=1;jettySize=auto;html=1;exitX=0.5;exitY=1;exitDx=0;exitDy=0;entryX=0.5;entryY=0;entryDx=0;entryDy=0;endArrow=none;endFill=0;dashed=1;" edge="1" parent="1" source="VjbKFeKNcHJvRqxNimhH-4" target="VjbKFeKNcHJvRqxNimhH-5">
          <mxGeometry relative="1" as="geometry" />
        </mxCell>
        <mxCell id="VjbKFeKNcHJvRqxNimhH-2" value="Saas平台" style="rounded=0;whiteSpace=wrap;html=1;fillColor=#e1d5e7;strokeColor=#9673a6;" vertex="1" parent="1">
          <mxGeometry x="20" y="630" width="80" height="40" as="geometry" />
        </mxCell>
        <mxCell id="VjbKFeKNcHJvRqxNimhH-3" style="edgeStyle=orthogonalEdgeStyle;rounded=0;orthogonalLoop=1;jettySize=auto;html=1;exitX=0.5;exitY=1;exitDx=0;exitDy=0;entryX=0.5;entryY=0;entryDx=0;entryDy=0;endArrow=none;endFill=0;dashed=1;" edge="1" parent="1" target="VjbKFeKNcHJvRqxNimhH-2">
          <mxGeometry relative="1" as="geometry">
            <mxPoint x="60" y="160" as="sourcePoint" />
          </mxGeometry>
        </mxCell>
        <mxCell id="VjbKFeKNcHJvRqxNimhH-14" value="CV-RM" style="rounded=0;whiteSpace=wrap;html=1;fillColor=#ffe6cc;strokeColor=#d79b00;" vertex="1" parent="1">
          <mxGeometry x="414" y="630" width="81" height="40" as="geometry" />
        </mxCell>
        <mxCell id="VjbKFeKNcHJvRqxNimhH-15" style="edgeStyle=orthogonalEdgeStyle;rounded=0;orthogonalLoop=1;jettySize=auto;html=1;exitX=0.5;exitY=1;exitDx=0;exitDy=0;entryX=0.5;entryY=0;entryDx=0;entryDy=0;endArrow=none;endFill=0;dashed=1;" edge="1" parent="1" source="VjbKFeKNcHJvRqxNimhH-7" target="VjbKFeKNcHJvRqxNimhH-14">
          <mxGeometry relative="1" as="geometry" />
        </mxCell>
        <mxCell id="VjbKFeKNcHJvRqxNimhH-17" value="EX" style="rounded=0;whiteSpace=wrap;html=1;fillColor=#dae8fc;strokeColor=#6c8ebf;" vertex="1" parent="1">
          <mxGeometry x="590" y="630" width="70" height="40" as="geometry" />
        </mxCell>
        <mxCell id="VjbKFeKNcHJvRqxNimhH-18" style="edgeStyle=orthogonalEdgeStyle;rounded=0;orthogonalLoop=1;jettySize=auto;html=1;exitX=0.5;exitY=1;exitDx=0;exitDy=0;entryX=0.5;entryY=0;entryDx=0;entryDy=0;endArrow=none;endFill=0;dashed=1;" edge="1" parent="1" source="VjbKFeKNcHJvRqxNimhH-8" target="VjbKFeKNcHJvRqxNimhH-17">
          <mxGeometry relative="1" as="geometry" />
        </mxCell>
        <mxCell id="VjbKFeKNcHJvRqxNimhH-37" value="Text" style="edgeLabel;html=1;align=center;verticalAlign=middle;resizable=0;points=[];" vertex="1" connectable="0" parent="VjbKFeKNcHJvRqxNimhH-18">
          <mxGeometry x="-0.5489" y="1" relative="1" as="geometry">
            <mxPoint as="offset" />
          </mxGeometry>
        </mxCell>
        <mxCell id="VjbKFeKNcHJvRqxNimhH-20" value="MySQL" style="rounded=0;whiteSpace=wrap;html=1;fillColor=#d5e8d4;strokeColor=#82b366;" vertex="1" parent="1">
          <mxGeometry x="710" y="630" width="70" height="40" as="geometry" />
        </mxCell>
        <mxCell id="VjbKFeKNcHJvRqxNimhH-21" style="edgeStyle=orthogonalEdgeStyle;rounded=0;orthogonalLoop=1;jettySize=auto;html=1;exitX=0.5;exitY=1;exitDx=0;exitDy=0;entryX=0.5;entryY=0;entryDx=0;entryDy=0;endArrow=none;endFill=0;dashed=1;" edge="1" parent="1" source="VjbKFeKNcHJvRqxNimhH-9" target="VjbKFeKNcHJvRqxNimhH-20">
          <mxGeometry relative="1" as="geometry" />
        </mxCell>
        <mxCell id="VjbKFeKNcHJvRqxNimhH-23" value="视频算子" style="rounded=0;whiteSpace=wrap;html=1;fillColor=#b1ddf0;strokeColor=#10739e;" vertex="1" parent="1">
          <mxGeometry x="820" y="630" width="80" height="40" as="geometry" />
        </mxCell>
        <mxCell id="VjbKFeKNcHJvRqxNimhH-24" style="edgeStyle=orthogonalEdgeStyle;rounded=0;orthogonalLoop=1;jettySize=auto;html=1;exitX=0.5;exitY=1;exitDx=0;exitDy=0;entryX=0.5;entryY=0;entryDx=0;entryDy=0;endArrow=none;endFill=0;dashed=1;" edge="1" parent="1" source="VjbKFeKNcHJvRqxNimhH-10" target="VjbKFeKNcHJvRqxNimhH-23">
          <mxGeometry relative="1" as="geometry" />
        </mxCell>
        <mxCell id="VjbKFeKNcHJvRqxNimhH-25" value="MQ" style="rounded=0;whiteSpace=wrap;html=1;fillColor=#bac8d3;strokeColor=#23445d;" vertex="1" parent="1">
          <mxGeometry x="930" y="630" width="70" height="40" as="geometry" />
        </mxCell>
        <mxCell id="VjbKFeKNcHJvRqxNimhH-26" style="edgeStyle=orthogonalEdgeStyle;rounded=0;orthogonalLoop=1;jettySize=auto;html=1;exitX=0.5;exitY=1;exitDx=0;exitDy=0;entryX=0.5;entryY=0;entryDx=0;entryDy=0;endArrow=none;endFill=0;dashed=1;" edge="1" parent="1" source="VjbKFeKNcHJvRqxNimhH-11" target="VjbKFeKNcHJvRqxNimhH-25">
          <mxGeometry relative="1" as="geometry" />
        </mxCell>
        <mxCell id="VjbKFeKNcHJvRqxNimhH-61" value="11. 将对应库信息保存到内存Cache中" style="html=1;align=left;spacingLeft=2;endArrow=block;rounded=0;edgeStyle=orthogonalEdgeStyle;curved=0;rounded=0;" edge="1" parent="1">
          <mxGeometry relative="1" as="geometry">
            <mxPoint x="260" y="555" as="sourcePoint" />
            <Array as="points">
              <mxPoint x="290" y="585" />
            </Array>
            <mxPoint x="260" y="585" as="targetPoint" />
          </mxGeometry>
        </mxCell>
        <mxCell id="VjbKFeKNcHJvRqxNimhH-62" value="异步上报任务进度" style="html=1;verticalAlign=bottom;endArrow=block;curved=0;rounded=0;" edge="1" parent="1">
          <mxGeometry width="80" relative="1" as="geometry">
            <mxPoint x="860" y="610" as="sourcePoint" />
            <mxPoint x="260" y="610" as="targetPoint" />
          </mxGeometry>
        </mxCell>
      </root>
    </mxGraphModel>
  </diagram>
</mxfile>
